SplineFontDB: 3.0
FontName: Pokemon-Generation-1
FullName: Pokemon Generation 1 Regular
FamilyName: Pokemon Generation 1
Weight: Book
Copyright: Copyright tgncc1701 2010
Version: 1.0
ItalicAngle: 0
UnderlinePosition: 77
UnderlineWidth: 51
Ascent: 896
Descent: 128
InvalidEm: 0
sfntRevision: 0x00010000
LayerCount: 2
Layer: 0 1 "Back" 1
Layer: 1 1 "Fore" 0
XUID: [1021 267 -1959591093 5458958]
StyleMap: 0x0040
FSType: 4
OS2Version: 2
OS2_WeightWidthSlopeOnly: 0
OS2_UseTypoMetrics: 0
CreationTime: 1277863162
ModificationTime: 1528515451
PfmFamily: 81
TTFWeight: 400
TTFWidth: 5
LineGap: 0
VLineGap: 0
Panose: 0 0 4 0 0 0 0 0 0 0
OS2TypoAscent: 896
OS2TypoAOffset: 0
OS2TypoDescent: -128
OS2TypoDOffset: 0
OS2TypoLinegap: 0
OS2WinAscent: 1024
OS2WinAOffset: 0
OS2WinDescent: 256
OS2WinDOffset: 0
HheadAscent: 1024
HheadAOffset: 0
HheadDescent: -256
HheadDOffset: 0
OS2SubXSize: 512
OS2SubYSize: 512
OS2SubXOff: 0
OS2SubYOff: -64
OS2SupXSize: 512
OS2SupYSize: 512
OS2SupXOff: 0
OS2SupYOff: 512
OS2StrikeYSize: 51
OS2StrikeYPos: 204
OS2CapHeight: 896
OS2XHeight: 640
OS2Vendor: 'FSTR'
OS2CodePages: 00000001.00000000
OS2UnicodeRanges: 80000001.00000000.00000000.00000000
DEI: 91125
ShortTable: maxp 16
  1
  0
  102
  44
  10
  0
  0
  2
  0
  0
  0
  0
  0
  0
  0
  0
EndShort
LangName: 1033 "" "" "Regular" "FontStruct Pokemon Generation 1" "" "Version 1.0" "" "FontStruct is a trademark of FSI FontShop International GmbH" "http://fontstruct.fontshop.com" "tgncc1701" "+IBwA-Pokemon Generation 1+IB0A was built with FontStruct+AAoA" "http://www.fontshop.com" "http://fontstruct.fontshop.com/fontstructions/show/334344" "Creative Commons Attribution Share Alike" "http://creativecommons.org/licenses/by-sa/3.0/" "" "" "" "" "Five big quacking zephyrs jolt my wax bed"
Encoding: UnicodeBmp
Compacted: 1
UnicodeInterp: none
NameList: AGL For New Fonts
DisplaySize: -48
AntiAlias: 1
FitToEm: 0
WinInfo: 48 16 4
BeginChars: 65537 103

StartChar: exclam
Encoding: 33 33 3
Width: 640
Flags: W
LayerCount: 2
Fore
SplineSet
128 0 m 1,0,-1
 128 256 l 1,1,-1
 384 256 l 1,2,-1
 384 0 l 1,3,-1
 128 0 l 1,0,-1
128 384 m 1,4,-1
 128 512 l 1,5,-1
 0 512 l 1,6,-1
 0 896 l 1,7,-1
 128 896 l 1,8,-1
 128 1024 l 1,9,-1
 384 1024 l 1,10,-1
 384 896 l 1,11,-1
 512 896 l 1,12,-1
 512 512 l 1,13,-1
 384 512 l 1,14,-1
 384 384 l 1,15,-1
 128 384 l 1,4,-1
EndSplineSet
Validated: 1
EndChar

StartChar: quotedbl
Encoding: 34 34 4
Width: 1024
Flags: W
LayerCount: 2
Fore
SplineSet
384 384 m 1,0,-1
 384 512 l 1,1,-1
 512 512 l 1,2,-1
 512 384 l 1,3,-1
 384 384 l 1,0,-1
0 512 m 1,4,-1
 0 640 l 1,5,-1
 128 640 l 1,6,-1
 128 512 l 1,7,-1
 0 512 l 1,4,-1
512 512 m 1,8,-1
 512 640 l 1,9,-1
 640 640 l 1,10,-1
 640 768 l 1,11,-1
 896 768 l 1,12,-1
 896 640 l 1,13,-1
 768 640 l 1,14,-1
 768 512 l 1,15,-1
 512 512 l 1,8,-1
128 640 m 1,16,-1
 128 768 l 1,17,-1
 256 768 l 1,18,-1
 256 896 l 1,19,-1
 512 896 l 1,20,-1
 512 768 l 1,21,-1
 384 768 l 1,22,-1
 384 640 l 1,23,-1
 128 640 l 1,16,-1
EndSplineSet
Validated: 5
EndChar

StartChar: numbersign
Encoding: 35 35 5
Width: 768
Flags: W
LayerCount: 2
Fore
SplineSet
256 0 m 1,0,-1
 256 256 l 1,1,-1
 0 256 l 1,2,-1
 0 384 l 1,3,-1
 256 384 l 1,4,-1
 256 512 l 1,5,-1
 128 512 l 1,6,-1
 128 640 l 1,7,-1
 512 640 l 1,8,-1
 512 512 l 1,9,-1
 384 512 l 1,10,-1
 384 384 l 1,11,-1
 640 384 l 1,12,-1
 640 256 l 1,13,-1
 384 256 l 1,14,-1
 384 0 l 1,15,-1
 256 0 l 1,0,-1
0 640 m 1,16,-1
 0 896 l 1,17,-1
 128 896 l 1,18,-1
 128 640 l 1,19,-1
 0 640 l 1,16,-1
512 640 m 1,20,-1
 512 896 l 1,21,-1
 640 896 l 1,22,-1
 640 640 l 1,23,-1
 512 640 l 1,20,-1
128 896 m 1,24,-1
 128 1024 l 1,25,-1
 512 1024 l 1,26,-1
 512 896 l 1,27,-1
 128 896 l 1,24,-1
EndSplineSet
Validated: 5
EndChar

StartChar: dollar
Encoding: 36 36 6
Width: 1024
Flags: W
LayerCount: 2
Fore
SplineSet
768 0 m 1,0,-1
 768 256 l 1,1,-1
 896 256 l 1,2,-1
 896 0 l 1,3,-1
 768 0 l 1,0,-1
512 0 m 1,4,-1
 512 640 l 1,5,-1
 640 640 l 1,6,-1
 640 384 l 1,7,-1
 768 384 l 1,8,-1
 768 256 l 1,9,-1
 640 256 l 1,10,-1
 640 0 l 1,11,-1
 512 0 l 1,4,-1
768 384 m 1,12,-1
 768 640 l 1,13,-1
 896 640 l 1,14,-1
 896 384 l 1,15,-1
 768 384 l 1,12,-1
256 768 m 1,16,-1
 256 896 l 1,17,-1
 128 896 l 1,18,-1
 128 768 l 1,19,-1
 256 768 l 1,16,-1
0 384 m 1,20,-1
 0 1024 l 1,21,-1
 384 1024 l 1,22,-1
 384 640 l 1,23,-1
 128 640 l 1,24,-1
 128 384 l 1,25,-1
 0 384 l 1,20,-1
EndSplineSet
Validated: 5
EndChar

StartChar: percent
Encoding: 37 37 7
Width: 1024
Flags: W
LayerCount: 2
Fore
SplineSet
384 0 m 1,0,-1
 384 512 l 1,1,-1
 512 512 l 1,2,-1
 512 384 l 1,3,-1
 640 384 l 1,4,-1
 640 256 l 1,5,-1
 512 256 l 1,6,-1
 512 0 l 1,7,-1
 384 0 l 1,0,-1
768 0 m 1,8,-1
 768 128 l 1,9,-1
 640 128 l 1,10,-1
 640 256 l 1,11,-1
 768 256 l 1,12,-1
 768 512 l 1,13,-1
 896 512 l 1,14,-1
 896 0 l 1,15,-1
 768 0 l 1,8,-1
256 768 m 1,16,-1
 256 896 l 1,17,-1
 384 896 l 1,18,-1
 384 768 l 1,19,-1
 256 768 l 1,16,-1
0 384 m 1,20,-1
 0 1024 l 1,21,-1
 256 1024 l 1,22,-1
 256 896 l 1,23,-1
 128 896 l 1,24,-1
 128 384 l 1,25,-1
 0 384 l 1,20,-1
512 512 m 1,26,-1
 512 896 l 1,27,-1
 384 896 l 1,28,-1
 384 1024 l 1,29,-1
 640 1024 l 1,30,-1
 640 512 l 1,31,-1
 512 512 l 1,26,-1
EndSplineSet
Validated: 5
EndChar

StartChar: ampersand
Encoding: 38 38 8
Width: 896
Flags: W
LayerCount: 2
Fore
SplineSet
256 0 m 1,0,-1
 256 128 l 1,1,-1
 512 128 l 1,2,-1
 512 0 l 1,3,-1
 256 0 l 1,0,-1
128 128 m 1,4,-1
 128 256 l 1,5,-1
 256 256 l 1,6,-1
 256 128 l 1,7,-1
 128 128 l 1,4,-1
512 128 m 1,8,-1
 512 256 l 1,9,-1
 640 256 l 1,10,-1
 640 128 l 1,11,-1
 512 128 l 1,8,-1
0 256 m 1,12,-1
 0 512 l 1,13,-1
 128 512 l 1,14,-1
 128 640 l 1,15,-1
 256 640 l 1,16,-1
 256 512 l 1,17,-1
 384 512 l 1,18,-1
 384 640 l 1,19,-1
 256 640 l 1,20,-1
 256 768 l 1,21,-1
 512 768 l 1,22,-1
 512 640 l 1,23,-1
 640 640 l 1,24,-1
 640 512 l 1,25,-1
 768 512 l 1,26,-1
 768 256 l 1,27,-1
 640 256 l 1,28,-1
 640 384 l 1,29,-1
 128 384 l 1,30,-1
 128 256 l 1,31,-1
 0 256 l 1,12,-1
EndSplineSet
Validated: 5
EndChar

StartChar: quotesingle
Encoding: 39 39 9
Width: 640
Flags: W
LayerCount: 2
Fore
SplineSet
0 512 m 1,0,-1
 0 640 l 1,1,-1
 128 640 l 1,2,-1
 128 512 l 1,3,-1
 0 512 l 1,0,-1
128 640 m 1,4,-1
 128 768 l 1,5,-1
 256 768 l 1,6,-1
 256 896 l 1,7,-1
 512 896 l 1,8,-1
 512 768 l 1,9,-1
 384 768 l 1,10,-1
 384 640 l 1,11,-1
 128 640 l 1,4,-1
EndSplineSet
Validated: 5
EndChar

StartChar: parenleft
Encoding: 40 40 10
Width: 640
Flags: W
LayerCount: 2
Fore
SplineSet
256 0 m 1,0,-1
 256 128 l 1,1,-1
 512 128 l 1,2,-1
 512 0 l 1,3,-1
 256 0 l 1,0,-1
128 128 m 1,4,-1
 128 256 l 1,5,-1
 256 256 l 1,6,-1
 256 128 l 1,7,-1
 128 128 l 1,4,-1
0 256 m 1,8,-1
 0 640 l 1,9,-1
 128 640 l 1,10,-1
 128 256 l 1,11,-1
 0 256 l 1,8,-1
128 640 m 1,12,-1
 128 768 l 1,13,-1
 256 768 l 1,14,-1
 256 640 l 1,15,-1
 128 640 l 1,12,-1
256 768 m 1,16,-1
 256 896 l 1,17,-1
 512 896 l 1,18,-1
 512 768 l 1,19,-1
 256 768 l 1,16,-1
EndSplineSet
Validated: 5
EndChar

StartChar: parenright
Encoding: 41 41 11
Width: 640
Flags: W
LayerCount: 2
Fore
SplineSet
0 0 m 1,0,-1
 0 128 l 1,1,-1
 256 128 l 1,2,-1
 256 0 l 1,3,-1
 0 0 l 1,0,-1
256 128 m 1,4,-1
 256 256 l 1,5,-1
 384 256 l 1,6,-1
 384 128 l 1,7,-1
 256 128 l 1,4,-1
384 256 m 1,8,-1
 384 640 l 1,9,-1
 512 640 l 1,10,-1
 512 256 l 1,11,-1
 384 256 l 1,8,-1
256 640 m 1,12,-1
 256 768 l 1,13,-1
 384 768 l 1,14,-1
 384 640 l 1,15,-1
 256 640 l 1,12,-1
0 768 m 1,16,-1
 0 896 l 1,17,-1
 256 896 l 1,18,-1
 256 768 l 1,19,-1
 0 768 l 1,16,-1
EndSplineSet
Validated: 5
EndChar

StartChar: asterisk
Encoding: 42 42 12
Width: 768
Flags: W
LayerCount: 2
Fore
SplineSet
0 0 m 1,0,-1
 0 128 l 1,1,-1
 128 128 l 1,2,-1
 128 0 l 1,3,-1
 0 0 l 1,0,-1
512 0 m 1,4,-1
 512 128 l 1,5,-1
 640 128 l 1,6,-1
 640 0 l 1,7,-1
 512 0 l 1,4,-1
128 128 m 1,8,-1
 128 256 l 1,9,-1
 256 256 l 1,10,-1
 256 128 l 1,11,-1
 128 128 l 1,8,-1
384 128 m 1,12,-1
 384 256 l 1,13,-1
 512 256 l 1,14,-1
 512 128 l 1,15,-1
 384 128 l 1,12,-1
256 256 m 1,16,-1
 256 384 l 1,17,-1
 384 384 l 1,18,-1
 384 256 l 1,19,-1
 256 256 l 1,16,-1
128 384 m 1,20,-1
 128 512 l 1,21,-1
 256 512 l 1,22,-1
 256 384 l 1,23,-1
 128 384 l 1,20,-1
384 384 m 1,24,-1
 384 512 l 1,25,-1
 512 512 l 1,26,-1
 512 384 l 1,27,-1
 384 384 l 1,24,-1
0 512 m 1,28,-1
 0 640 l 1,29,-1
 128 640 l 1,30,-1
 128 512 l 1,31,-1
 0 512 l 1,28,-1
512 512 m 1,32,-1
 512 640 l 1,33,-1
 640 640 l 1,34,-1
 640 512 l 1,35,-1
 512 512 l 1,32,-1
EndSplineSet
Validated: 5
EndChar

StartChar: plus
Encoding: 43 43 13
Width: 768
Flags: W
LayerCount: 2
Fore
SplineSet
256 0 m 1,0,-1
 256 256 l 1,1,-1
 0 256 l 1,2,-1
 0 384 l 1,3,-1
 256 384 l 1,4,-1
 256 640 l 1,5,-1
 384 640 l 1,6,-1
 384 384 l 1,7,-1
 640 384 l 1,8,-1
 640 256 l 1,9,-1
 384 256 l 1,10,-1
 384 0 l 1,11,-1
 256 0 l 1,0,-1
EndSplineSet
Validated: 1
EndChar

StartChar: comma
Encoding: 44 44 14
Width: 384
Flags: W
LayerCount: 2
Fore
SplineSet
0 -256 m 1,0,-1
 0 -128 l 1,1,-1
 128 -128 l 1,2,-1
 128 -256 l 1,3,-1
 0 -256 l 1,0,-1
128 -128 m 1,4,-1
 128 0 l 1,5,-1
 0 0 l 1,6,-1
 0 256 l 1,7,-1
 256 256 l 1,8,-1
 256 -128 l 1,9,-1
 128 -128 l 1,4,-1
EndSplineSet
Validated: 5
EndChar

StartChar: hyphen
Encoding: 45 45 15
Width: 768
Flags: W
LayerCount: 2
Fore
SplineSet
0 256 m 1,0,-1
 0 384 l 1,1,-1
 640 384 l 1,2,-1
 640 256 l 1,3,-1
 0 256 l 1,0,-1
EndSplineSet
Validated: 1
EndChar

StartChar: period
Encoding: 46 46 16
Width: 384
Flags: W
LayerCount: 2
Fore
SplineSet
0 0 m 1,0,-1
 0 256 l 1,1,-1
 256 256 l 1,2,-1
 256 0 l 1,3,-1
 0 0 l 1,0,-1
EndSplineSet
Validated: 1
EndChar

StartChar: slash
Encoding: 47 47 17
Width: 1024
Flags: W
LayerCount: 2
Fore
SplineSet
0 0 m 1,0,-1
 0 128 l 1,1,-1
 128 128 l 1,2,-1
 128 0 l 1,3,-1
 0 0 l 1,0,-1
128 128 m 1,4,-1
 128 256 l 1,5,-1
 256 256 l 1,6,-1
 256 128 l 1,7,-1
 128 128 l 1,4,-1
256 256 m 1,8,-1
 256 384 l 1,9,-1
 384 384 l 1,10,-1
 384 256 l 1,11,-1
 256 256 l 1,8,-1
384 384 m 1,12,-1
 384 512 l 1,13,-1
 512 512 l 1,14,-1
 512 384 l 1,15,-1
 384 384 l 1,12,-1
512 512 m 1,16,-1
 512 640 l 1,17,-1
 640 640 l 1,18,-1
 640 512 l 1,19,-1
 512 512 l 1,16,-1
640 640 m 1,20,-1
 640 768 l 1,21,-1
 768 768 l 1,22,-1
 768 640 l 1,23,-1
 640 640 l 1,20,-1
768 768 m 1,24,-1
 768 896 l 1,25,-1
 896 896 l 1,26,-1
 896 768 l 1,27,-1
 768 768 l 1,24,-1
EndSplineSet
Validated: 5
EndChar

StartChar: zero
Encoding: 48 48 18
Width: 1024
Flags: W
LayerCount: 2
Fore
SplineSet
256 0 m 1,0,-1
 256 128 l 1,1,-1
 128 128 l 1,2,-1
 128 256 l 1,3,-1
 0 256 l 1,4,-1
 0 512 l 1,5,-1
 128 512 l 1,6,-1
 128 640 l 1,7,-1
 256 640 l 1,8,-1
 256 256 l 1,9,-1
 384 256 l 1,10,-1
 384 128 l 1,11,-1
 640 128 l 1,12,-1
 640 0 l 1,13,-1
 256 0 l 1,0,-1
640 128 m 1,14,-1
 640 512 l 1,15,-1
 512 512 l 1,16,-1
 512 640 l 1,17,-1
 256 640 l 1,18,-1
 256 768 l 1,19,-1
 640 768 l 1,20,-1
 640 640 l 1,21,-1
 768 640 l 1,22,-1
 768 512 l 1,23,-1
 896 512 l 1,24,-1
 896 256 l 1,25,-1
 768 256 l 1,26,-1
 768 128 l 1,27,-1
 640 128 l 1,14,-1
EndSplineSet
Validated: 5
EndChar

StartChar: one
Encoding: 49 49 19
Width: 896
Flags: W
LayerCount: 2
Fore
SplineSet
0 0 m 1,0,-1
 0 128 l 1,1,-1
 256 128 l 1,2,-1
 256 512 l 1,3,-1
 128 512 l 1,4,-1
 128 640 l 1,5,-1
 256 640 l 1,6,-1
 256 768 l 1,7,-1
 512 768 l 1,8,-1
 512 128 l 1,9,-1
 768 128 l 1,10,-1
 768 0 l 1,11,-1
 0 0 l 1,0,-1
EndSplineSet
Validated: 1
EndChar

StartChar: two
Encoding: 50 50 20
Width: 1024
Flags: W
LayerCount: 2
Fore
SplineSet
0 0 m 1,0,-1
 0 256 l 1,1,-1
 128 256 l 1,2,-1
 128 384 l 1,3,-1
 512 384 l 1,4,-1
 512 512 l 1,5,-1
 640 512 l 1,6,-1
 640 640 l 1,7,-1
 256 640 l 1,8,-1
 256 512 l 1,9,-1
 0 512 l 1,10,-1
 0 640 l 1,11,-1
 128 640 l 1,12,-1
 128 768 l 1,13,-1
 768 768 l 1,14,-1
 768 640 l 1,15,-1
 896 640 l 1,16,-1
 896 384 l 1,17,-1
 640 384 l 1,18,-1
 640 256 l 1,19,-1
 384 256 l 1,20,-1
 384 128 l 1,21,-1
 896 128 l 1,22,-1
 896 0 l 1,23,-1
 0 0 l 1,0,-1
EndSplineSet
Validated: 1
EndChar

StartChar: three
Encoding: 51 51 21
Width: 1024
Flags: W
LayerCount: 2
Fore
SplineSet
128 0 m 1,0,-1
 128 128 l 1,1,-1
 0 128 l 1,2,-1
 0 256 l 1,3,-1
 256 256 l 1,4,-1
 256 128 l 1,5,-1
 640 128 l 1,6,-1
 640 384 l 1,7,-1
 896 384 l 1,8,-1
 896 128 l 1,9,-1
 768 128 l 1,10,-1
 768 0 l 1,11,-1
 128 0 l 1,0,-1
256 384 m 1,12,-1
 256 512 l 1,13,-1
 512 512 l 1,14,-1
 512 640 l 1,15,-1
 128 640 l 1,16,-1
 128 768 l 1,17,-1
 896 768 l 1,18,-1
 896 640 l 1,19,-1
 768 640 l 1,20,-1
 768 512 l 1,21,-1
 640 512 l 1,22,-1
 640 384 l 1,23,-1
 256 384 l 1,12,-1
EndSplineSet
Validated: 5
EndChar

StartChar: four
Encoding: 52 52 22
Width: 1024
Flags: W
LayerCount: 2
Fore
SplineSet
512 256 m 1,0,-1
 512 512 l 1,1,-1
 384 512 l 1,2,-1
 384 384 l 1,3,-1
 256 384 l 1,4,-1
 256 256 l 1,5,-1
 512 256 l 1,0,-1
512 0 m 1,6,-1
 512 128 l 1,7,-1
 0 128 l 1,8,-1
 0 384 l 1,9,-1
 128 384 l 1,10,-1
 128 512 l 1,11,-1
 256 512 l 1,12,-1
 256 640 l 1,13,-1
 384 640 l 1,14,-1
 384 768 l 1,15,-1
 768 768 l 1,16,-1
 768 256 l 1,17,-1
 896 256 l 1,18,-1
 896 128 l 1,19,-1
 768 128 l 1,20,-1
 768 0 l 1,21,-1
 512 0 l 1,6,-1
EndSplineSet
Validated: 1
EndChar

StartChar: five
Encoding: 53 53 23
Width: 1024
Flags: W
LayerCount: 2
Fore
SplineSet
128 0 m 1,0,-1
 128 128 l 1,1,-1
 0 128 l 1,2,-1
 0 256 l 1,3,-1
 256 256 l 1,4,-1
 256 128 l 1,5,-1
 640 128 l 1,6,-1
 640 384 l 1,7,-1
 0 384 l 1,8,-1
 0 768 l 1,9,-1
 768 768 l 1,10,-1
 768 640 l 1,11,-1
 256 640 l 1,12,-1
 256 512 l 1,13,-1
 768 512 l 1,14,-1
 768 384 l 1,15,-1
 896 384 l 1,16,-1
 896 128 l 1,17,-1
 768 128 l 1,18,-1
 768 0 l 1,19,-1
 128 0 l 1,0,-1
EndSplineSet
Validated: 1
EndChar

StartChar: six
Encoding: 54 54 24
Width: 1024
Flags: W
LayerCount: 2
Fore
SplineSet
640 128 m 1,0,-1
 640 384 l 1,1,-1
 256 384 l 1,2,-1
 256 128 l 1,3,-1
 640 128 l 1,0,-1
128 0 m 1,4,-1
 128 128 l 1,5,-1
 0 128 l 1,6,-1
 0 640 l 1,7,-1
 128 640 l 1,8,-1
 128 768 l 1,9,-1
 768 768 l 1,10,-1
 768 640 l 1,11,-1
 256 640 l 1,12,-1
 256 512 l 1,13,-1
 768 512 l 1,14,-1
 768 384 l 1,15,-1
 896 384 l 1,16,-1
 896 128 l 1,17,-1
 768 128 l 1,18,-1
 768 0 l 1,19,-1
 128 0 l 1,4,-1
EndSplineSet
Validated: 1
EndChar

StartChar: seven
Encoding: 55 55 25
Width: 1024
Flags: W
LayerCount: 2
Fore
SplineSet
256 0 m 1,0,-1
 256 256 l 1,1,-1
 384 256 l 1,2,-1
 384 384 l 1,3,-1
 512 384 l 1,4,-1
 512 512 l 1,5,-1
 640 512 l 1,6,-1
 640 640 l 1,7,-1
 256 640 l 1,8,-1
 256 512 l 1,9,-1
 0 512 l 1,10,-1
 0 768 l 1,11,-1
 896 768 l 1,12,-1
 896 512 l 1,13,-1
 768 512 l 1,14,-1
 768 384 l 1,15,-1
 640 384 l 1,16,-1
 640 256 l 1,17,-1
 512 256 l 1,18,-1
 512 0 l 1,19,-1
 256 0 l 1,0,-1
EndSplineSet
Validated: 1
EndChar

StartChar: eight
Encoding: 56 56 26
Width: 1024
Flags: W
LayerCount: 2
Fore
SplineSet
640 128 m 1,0,-1
 640 384 l 1,1,-1
 256 384 l 1,2,-1
 256 128 l 1,3,-1
 640 128 l 1,0,-1
640 512 m 1,4,-1
 640 640 l 1,5,-1
 256 640 l 1,6,-1
 256 512 l 1,7,-1
 640 512 l 1,4,-1
128 0 m 1,8,-1
 128 128 l 1,9,-1
 0 128 l 1,10,-1
 0 384 l 1,11,-1
 128 384 l 1,12,-1
 128 512 l 1,13,-1
 0 512 l 1,14,-1
 0 640 l 1,15,-1
 128 640 l 1,16,-1
 128 768 l 1,17,-1
 768 768 l 1,18,-1
 768 640 l 1,19,-1
 896 640 l 1,20,-1
 896 512 l 1,21,-1
 768 512 l 1,22,-1
 768 384 l 1,23,-1
 896 384 l 1,24,-1
 896 128 l 1,25,-1
 768 128 l 1,26,-1
 768 0 l 1,27,-1
 128 0 l 1,8,-1
EndSplineSet
Validated: 1
EndChar

StartChar: nine
Encoding: 57 57 27
Width: 1024
Flags: W
LayerCount: 2
Fore
SplineSet
640 384 m 1,0,-1
 640 640 l 1,1,-1
 256 640 l 1,2,-1
 256 384 l 1,3,-1
 640 384 l 1,0,-1
128 0 m 1,4,-1
 128 128 l 1,5,-1
 640 128 l 1,6,-1
 640 256 l 1,7,-1
 128 256 l 1,8,-1
 128 384 l 1,9,-1
 0 384 l 1,10,-1
 0 640 l 1,11,-1
 128 640 l 1,12,-1
 128 768 l 1,13,-1
 768 768 l 1,14,-1
 768 640 l 1,15,-1
 896 640 l 1,16,-1
 896 128 l 1,17,-1
 768 128 l 1,18,-1
 768 0 l 1,19,-1
 128 0 l 1,4,-1
EndSplineSet
Validated: 1
EndChar

StartChar: colon
Encoding: 58 58 28
Width: 256
Flags: W
LayerCount: 2
Fore
SplineSet
0 128 m 1,0,-1
 0 256 l 1,1,-1
 128 256 l 1,2,-1
 128 128 l 1,3,-1
 0 128 l 1,0,-1
0 512 m 1,4,-1
 0 640 l 1,5,-1
 128 640 l 1,6,-1
 128 512 l 1,7,-1
 0 512 l 1,4,-1
EndSplineSet
Validated: 1
EndChar

StartChar: semicolon
Encoding: 59 59 29
Width: 256
Flags: W
LayerCount: 2
Fore
SplineSet
0 0 m 1,0,-1
 0 256 l 1,1,-1
 128 256 l 1,2,-1
 128 0 l 1,3,-1
 0 0 l 1,0,-1
0 512 m 1,4,-1
 0 640 l 1,5,-1
 128 640 l 1,6,-1
 128 512 l 1,7,-1
 0 512 l 1,4,-1
EndSplineSet
Validated: 1
EndChar

StartChar: less
Encoding: 60 60 30
Width: 768
Flags: W
LayerCount: 2
Fore
SplineSet
384 0 m 1,0,-1
 384 128 l 1,1,-1
 640 128 l 1,2,-1
 640 0 l 1,3,-1
 384 0 l 1,0,-1
128 128 m 1,4,-1
 128 256 l 1,5,-1
 384 256 l 1,6,-1
 384 128 l 1,7,-1
 128 128 l 1,4,-1
0 256 m 1,8,-1
 0 384 l 1,9,-1
 128 384 l 1,10,-1
 128 256 l 1,11,-1
 0 256 l 1,8,-1
128 384 m 1,12,-1
 128 512 l 1,13,-1
 384 512 l 1,14,-1
 384 384 l 1,15,-1
 128 384 l 1,12,-1
384 512 m 1,16,-1
 384 640 l 1,17,-1
 640 640 l 1,18,-1
 640 512 l 1,19,-1
 384 512 l 1,16,-1
EndSplineSet
Validated: 5
EndChar

StartChar: equal
Encoding: 61 61 31
Width: 768
Flags: W
LayerCount: 2
Fore
SplineSet
0 128 m 1,0,-1
 0 256 l 1,1,-1
 640 256 l 1,2,-1
 640 128 l 1,3,-1
 0 128 l 1,0,-1
0 384 m 1,4,-1
 0 512 l 1,5,-1
 640 512 l 1,6,-1
 640 384 l 1,7,-1
 0 384 l 1,4,-1
EndSplineSet
Validated: 1
EndChar

StartChar: greater
Encoding: 62 62 32
Width: 768
Flags: W
LayerCount: 2
Fore
SplineSet
0 0 m 1,0,-1
 0 128 l 1,1,-1
 256 128 l 1,2,-1
 256 0 l 1,3,-1
 0 0 l 1,0,-1
256 128 m 1,4,-1
 256 256 l 1,5,-1
 512 256 l 1,6,-1
 512 128 l 1,7,-1
 256 128 l 1,4,-1
512 256 m 1,8,-1
 512 384 l 1,9,-1
 640 384 l 1,10,-1
 640 256 l 1,11,-1
 512 256 l 1,8,-1
256 384 m 1,12,-1
 256 512 l 1,13,-1
 512 512 l 1,14,-1
 512 384 l 1,15,-1
 256 384 l 1,12,-1
0 512 m 1,16,-1
 0 640 l 1,17,-1
 256 640 l 1,18,-1
 256 512 l 1,19,-1
 0 512 l 1,16,-1
EndSplineSet
Validated: 5
EndChar

StartChar: question
Encoding: 63 63 33
Width: 1152
Flags: W
LayerCount: 2
Fore
SplineSet
384 0 m 1,0,-1
 384 256 l 1,1,-1
 640 256 l 1,2,-1
 640 0 l 1,3,-1
 384 0 l 1,0,-1
384 384 m 1,4,-1
 384 512 l 1,5,-1
 512 512 l 1,6,-1
 512 640 l 1,7,-1
 640 640 l 1,8,-1
 640 768 l 1,9,-1
 384 768 l 1,10,-1
 384 640 l 1,11,-1
 256 640 l 1,12,-1
 256 512 l 1,13,-1
 0 512 l 1,14,-1
 0 768 l 1,15,-1
 128 768 l 1,16,-1
 128 896 l 1,17,-1
 896 896 l 1,18,-1
 896 768 l 1,19,-1
 1024 768 l 1,20,-1
 1024 640 l 1,21,-1
 896 640 l 1,22,-1
 896 512 l 1,23,-1
 640 512 l 1,24,-1
 640 384 l 1,25,-1
 384 384 l 1,4,-1
EndSplineSet
Validated: 1
EndChar

StartChar: at
Encoding: 64 64 34
Width: 1024
Flags: W
LayerCount: 2
Fore
SplineSet
256 0 m 1,0,-1
 256 128 l 1,1,-1
 640 128 l 1,2,-1
 640 0 l 1,3,-1
 256 0 l 1,0,-1
128 128 m 1,4,-1
 128 384 l 1,5,-1
 256 384 l 1,6,-1
 256 128 l 1,7,-1
 128 128 l 1,4,-1
640 128 m 1,8,-1
 640 384 l 1,9,-1
 768 384 l 1,10,-1
 768 128 l 1,11,-1
 640 128 l 1,8,-1
0 512 m 1,12,-1
 0 640 l 1,13,-1
 128 640 l 1,14,-1
 128 512 l 1,15,-1
 0 512 l 1,12,-1
768 512 m 1,16,-1
 768 640 l 1,17,-1
 896 640 l 1,18,-1
 896 512 l 1,19,-1
 768 512 l 1,16,-1
128 640 m 1,20,-1
 128 768 l 1,21,-1
 256 768 l 1,22,-1
 256 640 l 1,23,-1
 128 640 l 1,20,-1
640 640 m 1,24,-1
 640 768 l 1,25,-1
 768 768 l 1,26,-1
 768 640 l 1,27,-1
 640 640 l 1,24,-1
256 384 m 1,28,-1
 256 512 l 1,29,-1
 384 512 l 1,30,-1
 384 768 l 1,31,-1
 256 768 l 1,32,-1
 256 896 l 1,33,-1
 384 896 l 1,34,-1
 384 1024 l 1,35,-1
 512 1024 l 1,36,-1
 512 896 l 1,37,-1
 640 896 l 1,38,-1
 640 768 l 1,39,-1
 512 768 l 1,40,-1
 512 512 l 1,41,-1
 640 512 l 1,42,-1
 640 384 l 1,43,-1
 256 384 l 1,28,-1
EndSplineSet
Validated: 5
EndChar

StartChar: A
Encoding: 65 65 35
Width: 1024
Flags: W
LayerCount: 2
Fore
SplineSet
0 0 m 1,0,-1
 0 256 l 1,1,-1
 128 256 l 1,2,-1
 128 0 l 1,3,-1
 0 0 l 1,0,-1
768 0 m 1,4,-1
 768 256 l 1,5,-1
 896 256 l 1,6,-1
 896 0 l 1,7,-1
 768 0 l 1,4,-1
128 256 m 1,8,-1
 128 512 l 1,9,-1
 256 512 l 1,10,-1
 256 384 l 1,11,-1
 640 384 l 1,12,-1
 640 512 l 1,13,-1
 768 512 l 1,14,-1
 768 256 l 1,15,-1
 128 256 l 1,8,-1
256 512 m 1,16,-1
 256 768 l 1,17,-1
 384 768 l 1,18,-1
 384 512 l 1,19,-1
 256 512 l 1,16,-1
512 512 m 1,20,-1
 512 768 l 1,21,-1
 640 768 l 1,22,-1
 640 512 l 1,23,-1
 512 512 l 1,20,-1
384 768 m 1,24,-1
 384 896 l 1,25,-1
 512 896 l 1,26,-1
 512 768 l 1,27,-1
 384 768 l 1,24,-1
EndSplineSet
Validated: 5
EndChar

StartChar: B
Encoding: 66 66 36
Width: 1024
Flags: W
LayerCount: 2
Fore
SplineSet
768 128 m 1,0,-1
 768 384 l 1,1,-1
 896 384 l 1,2,-1
 896 128 l 1,3,-1
 768 128 l 1,0,-1
0 0 m 1,4,-1
 0 896 l 1,5,-1
 640 896 l 1,6,-1
 640 768 l 1,7,-1
 128 768 l 1,8,-1
 128 512 l 1,9,-1
 640 512 l 1,10,-1
 640 768 l 1,11,-1
 768 768 l 1,12,-1
 768 384 l 1,13,-1
 128 384 l 1,14,-1
 128 128 l 1,15,-1
 768 128 l 1,16,-1
 768 0 l 1,17,-1
 0 0 l 1,4,-1
EndSplineSet
Validated: 5
EndChar

StartChar: C
Encoding: 67 67 37
Width: 1024
Flags: W
LayerCount: 2
Fore
SplineSet
256 0 m 1,0,-1
 256 128 l 1,1,-1
 768 128 l 1,2,-1
 768 0 l 1,3,-1
 256 0 l 1,0,-1
128 128 m 1,4,-1
 128 256 l 1,5,-1
 256 256 l 1,6,-1
 256 128 l 1,7,-1
 128 128 l 1,4,-1
768 128 m 1,8,-1
 768 256 l 1,9,-1
 896 256 l 1,10,-1
 896 128 l 1,11,-1
 768 128 l 1,8,-1
0 256 m 1,12,-1
 0 640 l 1,13,-1
 128 640 l 1,14,-1
 128 256 l 1,15,-1
 0 256 l 1,12,-1
128 640 m 1,16,-1
 128 768 l 1,17,-1
 256 768 l 1,18,-1
 256 640 l 1,19,-1
 128 640 l 1,16,-1
768 640 m 1,20,-1
 768 768 l 1,21,-1
 896 768 l 1,22,-1
 896 640 l 1,23,-1
 768 640 l 1,20,-1
256 768 m 1,24,-1
 256 896 l 1,25,-1
 768 896 l 1,26,-1
 768 768 l 1,27,-1
 256 768 l 1,24,-1
EndSplineSet
Validated: 5
EndChar

StartChar: D
Encoding: 68 68 38
Width: 1024
Flags: W
LayerCount: 2
Fore
SplineSet
640 128 m 1,0,-1
 640 256 l 1,1,-1
 768 256 l 1,2,-1
 768 128 l 1,3,-1
 640 128 l 1,0,-1
768 256 m 1,4,-1
 768 640 l 1,5,-1
 896 640 l 1,6,-1
 896 256 l 1,7,-1
 768 256 l 1,4,-1
640 640 m 1,8,-1
 640 768 l 1,9,-1
 768 768 l 1,10,-1
 768 640 l 1,11,-1
 640 640 l 1,8,-1
0 0 m 1,12,-1
 0 896 l 1,13,-1
 640 896 l 1,14,-1
 640 768 l 1,15,-1
 128 768 l 1,16,-1
 128 128 l 1,17,-1
 640 128 l 1,18,-1
 640 0 l 1,19,-1
 0 0 l 1,12,-1
EndSplineSet
Validated: 5
EndChar

StartChar: E
Encoding: 69 69 39
Width: 1024
Flags: W
LayerCount: 2
Fore
SplineSet
0 0 m 1,0,-1
 0 896 l 1,1,-1
 896 896 l 1,2,-1
 896 768 l 1,3,-1
 128 768 l 1,4,-1
 128 512 l 1,5,-1
 768 512 l 1,6,-1
 768 384 l 1,7,-1
 128 384 l 1,8,-1
 128 128 l 1,9,-1
 896 128 l 1,10,-1
 896 0 l 1,11,-1
 0 0 l 1,0,-1
EndSplineSet
Validated: 1
EndChar

StartChar: F
Encoding: 70 70 40
Width: 1024
Flags: W
LayerCount: 2
Fore
SplineSet
0 0 m 1,0,-1
 0 896 l 1,1,-1
 896 896 l 1,2,-1
 896 768 l 1,3,-1
 128 768 l 1,4,-1
 128 512 l 1,5,-1
 768 512 l 1,6,-1
 768 384 l 1,7,-1
 128 384 l 1,8,-1
 128 0 l 1,9,-1
 0 0 l 1,0,-1
EndSplineSet
Validated: 1
EndChar

StartChar: G
Encoding: 71 71 41
Width: 1024
Flags: W
LayerCount: 2
Fore
SplineSet
256 0 m 1,0,-1
 256 128 l 1,1,-1
 768 128 l 1,2,-1
 768 0 l 1,3,-1
 256 0 l 1,0,-1
128 128 m 1,4,-1
 128 256 l 1,5,-1
 256 256 l 1,6,-1
 256 128 l 1,7,-1
 128 128 l 1,4,-1
768 128 m 1,8,-1
 768 384 l 1,9,-1
 384 384 l 1,10,-1
 384 512 l 1,11,-1
 896 512 l 1,12,-1
 896 128 l 1,13,-1
 768 128 l 1,8,-1
0 256 m 1,14,-1
 0 640 l 1,15,-1
 128 640 l 1,16,-1
 128 256 l 1,17,-1
 0 256 l 1,14,-1
128 640 m 1,18,-1
 128 768 l 1,19,-1
 256 768 l 1,20,-1
 256 640 l 1,21,-1
 128 640 l 1,18,-1
768 640 m 1,22,-1
 768 768 l 1,23,-1
 896 768 l 1,24,-1
 896 640 l 1,25,-1
 768 640 l 1,22,-1
256 768 m 1,26,-1
 256 896 l 1,27,-1
 768 896 l 1,28,-1
 768 768 l 1,29,-1
 256 768 l 1,26,-1
EndSplineSet
Validated: 5
EndChar

StartChar: H
Encoding: 72 72 42
Width: 1024
Flags: W
LayerCount: 2
Fore
SplineSet
0 0 m 1,0,-1
 0 896 l 1,1,-1
 128 896 l 1,2,-1
 128 512 l 1,3,-1
 768 512 l 1,4,-1
 768 896 l 1,5,-1
 896 896 l 1,6,-1
 896 0 l 1,7,-1
 768 0 l 1,8,-1
 768 384 l 1,9,-1
 128 384 l 1,10,-1
 128 0 l 1,11,-1
 0 0 l 1,0,-1
EndSplineSet
Validated: 1
EndChar

StartChar: I
Encoding: 73 73 43
Width: 768
Flags: W
LayerCount: 2
Fore
SplineSet
0 0 m 1,0,-1
 0 128 l 1,1,-1
 256 128 l 1,2,-1
 256 768 l 1,3,-1
 0 768 l 1,4,-1
 0 896 l 1,5,-1
 640 896 l 1,6,-1
 640 768 l 1,7,-1
 384 768 l 1,8,-1
 384 128 l 1,9,-1
 640 128 l 1,10,-1
 640 0 l 1,11,-1
 0 0 l 1,0,-1
EndSplineSet
Validated: 1
EndChar

StartChar: J
Encoding: 74 74 44
Width: 1024
Flags: W
LayerCount: 2
Fore
SplineSet
128 0 m 1,0,-1
 128 128 l 1,1,-1
 512 128 l 1,2,-1
 512 0 l 1,3,-1
 128 0 l 1,0,-1
0 128 m 1,4,-1
 0 384 l 1,5,-1
 128 384 l 1,6,-1
 128 128 l 1,7,-1
 0 128 l 1,4,-1
512 128 m 1,8,-1
 512 768 l 1,9,-1
 128 768 l 1,10,-1
 128 896 l 1,11,-1
 896 896 l 1,12,-1
 896 768 l 1,13,-1
 640 768 l 1,14,-1
 640 128 l 1,15,-1
 512 128 l 1,8,-1
EndSplineSet
Validated: 5
EndChar

StartChar: K
Encoding: 75 75 45
Width: 1024
Flags: W
LayerCount: 2
Fore
SplineSet
768 0 m 1,0,-1
 768 128 l 1,1,-1
 896 128 l 1,2,-1
 896 0 l 1,3,-1
 768 0 l 1,0,-1
640 128 m 1,4,-1
 640 256 l 1,5,-1
 768 256 l 1,6,-1
 768 128 l 1,7,-1
 640 128 l 1,4,-1
512 256 m 1,8,-1
 512 384 l 1,9,-1
 640 384 l 1,10,-1
 640 256 l 1,11,-1
 512 256 l 1,8,-1
256 384 m 1,12,-1
 256 512 l 1,13,-1
 384 512 l 1,14,-1
 384 640 l 1,15,-1
 512 640 l 1,16,-1
 512 384 l 1,17,-1
 256 384 l 1,12,-1
512 640 m 1,18,-1
 512 768 l 1,19,-1
 640 768 l 1,20,-1
 640 640 l 1,21,-1
 512 640 l 1,18,-1
0 0 m 1,22,-1
 0 896 l 1,23,-1
 128 896 l 1,24,-1
 128 384 l 1,25,-1
 256 384 l 1,26,-1
 256 256 l 1,27,-1
 128 256 l 1,28,-1
 128 0 l 1,29,-1
 0 0 l 1,22,-1
640 768 m 1,30,-1
 640 896 l 1,31,-1
 768 896 l 1,32,-1
 768 768 l 1,33,-1
 640 768 l 1,30,-1
EndSplineSet
Validated: 5
EndChar

StartChar: L
Encoding: 76 76 46
Width: 1024
Flags: W
LayerCount: 2
Fore
SplineSet
0 0 m 1,0,-1
 0 896 l 1,1,-1
 128 896 l 1,2,-1
 128 128 l 1,3,-1
 896 128 l 1,4,-1
 896 0 l 1,5,-1
 0 0 l 1,0,-1
EndSplineSet
Validated: 1
EndChar

StartChar: M
Encoding: 77 77 47
Width: 1024
Flags: W
LayerCount: 2
Fore
SplineSet
384 384 m 1,0,-1
 384 512 l 1,1,-1
 512 512 l 1,2,-1
 512 384 l 1,3,-1
 384 384 l 1,0,-1
256 512 m 1,4,-1
 256 640 l 1,5,-1
 384 640 l 1,6,-1
 384 512 l 1,7,-1
 256 512 l 1,4,-1
512 512 m 1,8,-1
 512 640 l 1,9,-1
 640 640 l 1,10,-1
 640 512 l 1,11,-1
 512 512 l 1,8,-1
0 0 m 1,12,-1
 0 896 l 1,13,-1
 128 896 l 1,14,-1
 128 768 l 1,15,-1
 256 768 l 1,16,-1
 256 640 l 1,17,-1
 128 640 l 1,18,-1
 128 0 l 1,19,-1
 0 0 l 1,12,-1
768 0 m 1,20,-1
 768 640 l 1,21,-1
 640 640 l 1,22,-1
 640 768 l 1,23,-1
 768 768 l 1,24,-1
 768 896 l 1,25,-1
 896 896 l 1,26,-1
 896 0 l 1,27,-1
 768 0 l 1,20,-1
EndSplineSet
Validated: 5
EndChar

StartChar: N
Encoding: 78 78 48
Width: 1024
Flags: W
LayerCount: 2
Fore
SplineSet
512 256 m 1,0,-1
 512 384 l 1,1,-1
 640 384 l 1,2,-1
 640 256 l 1,3,-1
 512 256 l 1,0,-1
384 384 m 1,4,-1
 384 512 l 1,5,-1
 512 512 l 1,6,-1
 512 384 l 1,7,-1
 384 384 l 1,4,-1
256 512 m 1,8,-1
 256 640 l 1,9,-1
 384 640 l 1,10,-1
 384 512 l 1,11,-1
 256 512 l 1,8,-1
0 0 m 1,12,-1
 0 896 l 1,13,-1
 128 896 l 1,14,-1
 128 768 l 1,15,-1
 256 768 l 1,16,-1
 256 640 l 1,17,-1
 128 640 l 1,18,-1
 128 0 l 1,19,-1
 0 0 l 1,12,-1
768 0 m 1,20,-1
 768 128 l 1,21,-1
 640 128 l 1,22,-1
 640 256 l 1,23,-1
 768 256 l 1,24,-1
 768 896 l 1,25,-1
 896 896 l 1,26,-1
 896 0 l 1,27,-1
 768 0 l 1,20,-1
EndSplineSet
Validated: 5
EndChar

StartChar: O
Encoding: 79 79 49
Width: 1024
Flags: W
LayerCount: 2
Fore
SplineSet
256 0 m 1,0,-1
 256 128 l 1,1,-1
 640 128 l 1,2,-1
 640 0 l 1,3,-1
 256 0 l 1,0,-1
128 128 m 1,4,-1
 128 256 l 1,5,-1
 256 256 l 1,6,-1
 256 128 l 1,7,-1
 128 128 l 1,4,-1
640 128 m 1,8,-1
 640 256 l 1,9,-1
 768 256 l 1,10,-1
 768 128 l 1,11,-1
 640 128 l 1,8,-1
0 256 m 1,12,-1
 0 640 l 1,13,-1
 128 640 l 1,14,-1
 128 256 l 1,15,-1
 0 256 l 1,12,-1
768 256 m 1,16,-1
 768 640 l 1,17,-1
 896 640 l 1,18,-1
 896 256 l 1,19,-1
 768 256 l 1,16,-1
128 640 m 1,20,-1
 128 768 l 1,21,-1
 256 768 l 1,22,-1
 256 640 l 1,23,-1
 128 640 l 1,20,-1
640 640 m 1,24,-1
 640 768 l 1,25,-1
 768 768 l 1,26,-1
 768 640 l 1,27,-1
 640 640 l 1,24,-1
256 768 m 1,28,-1
 256 896 l 1,29,-1
 640 896 l 1,30,-1
 640 768 l 1,31,-1
 256 768 l 1,28,-1
EndSplineSet
Validated: 5
EndChar

StartChar: P
Encoding: 80 80 50
Width: 1024
Flags: W
LayerCount: 2
Fore
SplineSet
768 512 m 1,0,-1
 768 768 l 1,1,-1
 896 768 l 1,2,-1
 896 512 l 1,3,-1
 768 512 l 1,0,-1
0 0 m 1,4,-1
 0 896 l 1,5,-1
 768 896 l 1,6,-1
 768 768 l 1,7,-1
 128 768 l 1,8,-1
 128 512 l 1,9,-1
 768 512 l 1,10,-1
 768 384 l 1,11,-1
 128 384 l 1,12,-1
 128 0 l 1,13,-1
 0 0 l 1,4,-1
EndSplineSet
Validated: 5
EndChar

StartChar: Q
Encoding: 81 81 51
Width: 1024
Flags: W
LayerCount: 2
Fore
SplineSet
256 0 m 1,0,-1
 256 128 l 1,1,-1
 640 128 l 1,2,-1
 640 0 l 1,3,-1
 256 0 l 1,0,-1
768 0 m 1,4,-1
 768 128 l 1,5,-1
 896 128 l 1,6,-1
 896 0 l 1,7,-1
 768 0 l 1,4,-1
128 128 m 1,8,-1
 128 256 l 1,9,-1
 256 256 l 1,10,-1
 256 128 l 1,11,-1
 128 128 l 1,8,-1
640 128 m 1,12,-1
 640 256 l 1,13,-1
 768 256 l 1,14,-1
 768 128 l 1,15,-1
 640 128 l 1,12,-1
512 256 m 1,16,-1
 512 384 l 1,17,-1
 640 384 l 1,18,-1
 640 256 l 1,19,-1
 512 256 l 1,16,-1
0 256 m 1,20,-1
 0 640 l 1,21,-1
 128 640 l 1,22,-1
 128 256 l 1,23,-1
 0 256 l 1,20,-1
768 256 m 1,24,-1
 768 640 l 1,25,-1
 896 640 l 1,26,-1
 896 256 l 1,27,-1
 768 256 l 1,24,-1
128 640 m 1,28,-1
 128 768 l 1,29,-1
 256 768 l 1,30,-1
 256 640 l 1,31,-1
 128 640 l 1,28,-1
640 640 m 1,32,-1
 640 768 l 1,33,-1
 768 768 l 1,34,-1
 768 640 l 1,35,-1
 640 640 l 1,32,-1
256 768 m 1,36,-1
 256 896 l 1,37,-1
 640 896 l 1,38,-1
 640 768 l 1,39,-1
 256 768 l 1,36,-1
EndSplineSet
Validated: 5
EndChar

StartChar: R
Encoding: 82 82 52
Width: 1024
Flags: W
LayerCount: 2
Fore
SplineSet
768 0 m 1,0,-1
 768 128 l 1,1,-1
 896 128 l 1,2,-1
 896 0 l 1,3,-1
 768 0 l 1,0,-1
640 128 m 1,4,-1
 640 256 l 1,5,-1
 768 256 l 1,6,-1
 768 128 l 1,7,-1
 640 128 l 1,4,-1
768 512 m 1,8,-1
 768 768 l 1,9,-1
 896 768 l 1,10,-1
 896 512 l 1,11,-1
 768 512 l 1,8,-1
0 0 m 1,12,-1
 0 896 l 1,13,-1
 768 896 l 1,14,-1
 768 768 l 1,15,-1
 128 768 l 1,16,-1
 128 512 l 1,17,-1
 768 512 l 1,18,-1
 768 384 l 1,19,-1
 640 384 l 1,20,-1
 640 256 l 1,21,-1
 512 256 l 1,22,-1
 512 384 l 1,23,-1
 128 384 l 1,24,-1
 128 0 l 1,25,-1
 0 0 l 1,12,-1
EndSplineSet
Validated: 5
EndChar

StartChar: S
Encoding: 83 83 53
Width: 1024
Flags: W
LayerCount: 2
Fore
SplineSet
128 0 m 1,0,-1
 128 128 l 1,1,-1
 768 128 l 1,2,-1
 768 0 l 1,3,-1
 128 0 l 1,0,-1
0 128 m 1,4,-1
 0 256 l 1,5,-1
 128 256 l 1,6,-1
 128 128 l 1,7,-1
 0 128 l 1,4,-1
768 128 m 1,8,-1
 768 384 l 1,9,-1
 896 384 l 1,10,-1
 896 128 l 1,11,-1
 768 128 l 1,8,-1
128 384 m 1,12,-1
 128 512 l 1,13,-1
 768 512 l 1,14,-1
 768 384 l 1,15,-1
 128 384 l 1,12,-1
0 512 m 1,16,-1
 0 768 l 1,17,-1
 128 768 l 1,18,-1
 128 512 l 1,19,-1
 0 512 l 1,16,-1
640 640 m 1,20,-1
 640 768 l 1,21,-1
 768 768 l 1,22,-1
 768 640 l 1,23,-1
 640 640 l 1,20,-1
128 768 m 1,24,-1
 128 896 l 1,25,-1
 640 896 l 1,26,-1
 640 768 l 1,27,-1
 128 768 l 1,24,-1
EndSplineSet
Validated: 5
EndChar

StartChar: T
Encoding: 84 84 54
Width: 1024
Flags: W
LayerCount: 2
Fore
SplineSet
384 0 m 1,0,-1
 384 768 l 1,1,-1
 0 768 l 1,2,-1
 0 896 l 1,3,-1
 896 896 l 1,4,-1
 896 768 l 1,5,-1
 512 768 l 1,6,-1
 512 0 l 1,7,-1
 384 0 l 1,0,-1
EndSplineSet
Validated: 1
EndChar

StartChar: U
Encoding: 85 85 55
Width: 1024
Flags: W
LayerCount: 2
Fore
SplineSet
128 128 m 1,0,-1
 128 256 l 1,1,-1
 256 256 l 1,2,-1
 256 128 l 1,3,-1
 128 128 l 1,0,-1
0 256 m 1,4,-1
 0 896 l 1,5,-1
 128 896 l 1,6,-1
 128 256 l 1,7,-1
 0 256 l 1,4,-1
256 0 m 1,8,-1
 256 128 l 1,9,-1
 768 128 l 1,10,-1
 768 896 l 1,11,-1
 896 896 l 1,12,-1
 896 0 l 1,13,-1
 256 0 l 1,8,-1
EndSplineSet
Validated: 5
EndChar

StartChar: V
Encoding: 86 86 56
Width: 1024
Flags: W
LayerCount: 2
Fore
SplineSet
384 0 m 1,0,-1
 384 128 l 1,1,-1
 512 128 l 1,2,-1
 512 0 l 1,3,-1
 384 0 l 1,0,-1
256 128 m 1,4,-1
 256 384 l 1,5,-1
 384 384 l 1,6,-1
 384 128 l 1,7,-1
 256 128 l 1,4,-1
512 128 m 1,8,-1
 512 384 l 1,9,-1
 640 384 l 1,10,-1
 640 128 l 1,11,-1
 512 128 l 1,8,-1
128 384 m 1,12,-1
 128 640 l 1,13,-1
 256 640 l 1,14,-1
 256 384 l 1,15,-1
 128 384 l 1,12,-1
640 384 m 1,16,-1
 640 640 l 1,17,-1
 768 640 l 1,18,-1
 768 384 l 1,19,-1
 640 384 l 1,16,-1
0 640 m 1,20,-1
 0 896 l 1,21,-1
 128 896 l 1,22,-1
 128 640 l 1,23,-1
 0 640 l 1,20,-1
768 640 m 1,24,-1
 768 896 l 1,25,-1
 896 896 l 1,26,-1
 896 640 l 1,27,-1
 768 640 l 1,24,-1
EndSplineSet
Validated: 5
EndChar

StartChar: W
Encoding: 87 87 57
Width: 1024
Flags: W
LayerCount: 2
Fore
SplineSet
256 384 m 1,0,-1
 256 640 l 1,1,-1
 384 640 l 1,2,-1
 384 384 l 1,3,-1
 256 384 l 1,0,-1
512 384 m 1,4,-1
 512 640 l 1,5,-1
 640 640 l 1,6,-1
 640 384 l 1,7,-1
 512 384 l 1,4,-1
384 640 m 1,8,-1
 384 768 l 1,9,-1
 512 768 l 1,10,-1
 512 640 l 1,11,-1
 384 640 l 1,8,-1
0 0 m 1,12,-1
 0 896 l 1,13,-1
 128 896 l 1,14,-1
 128 384 l 1,15,-1
 256 384 l 1,16,-1
 256 128 l 1,17,-1
 128 128 l 1,18,-1
 128 0 l 1,19,-1
 0 0 l 1,12,-1
768 0 m 1,20,-1
 768 128 l 1,21,-1
 640 128 l 1,22,-1
 640 384 l 1,23,-1
 768 384 l 1,24,-1
 768 896 l 1,25,-1
 896 896 l 1,26,-1
 896 0 l 1,27,-1
 768 0 l 1,20,-1
EndSplineSet
Validated: 5
EndChar

StartChar: X
Encoding: 88 88 58
Width: 1024
Flags: W
LayerCount: 2
Fore
SplineSet
0 0 m 1,0,-1
 0 128 l 1,1,-1
 128 128 l 1,2,-1
 128 256 l 1,3,-1
 256 256 l 1,4,-1
 256 0 l 1,5,-1
 0 0 l 1,0,-1
640 0 m 1,6,-1
 640 256 l 1,7,-1
 768 256 l 1,8,-1
 768 128 l 1,9,-1
 896 128 l 1,10,-1
 896 0 l 1,11,-1
 640 0 l 1,6,-1
256 256 m 1,12,-1
 256 384 l 1,13,-1
 384 384 l 1,14,-1
 384 256 l 1,15,-1
 256 256 l 1,12,-1
512 256 m 1,16,-1
 512 384 l 1,17,-1
 640 384 l 1,18,-1
 640 256 l 1,19,-1
 512 256 l 1,16,-1
384 384 m 1,20,-1
 384 512 l 1,21,-1
 512 512 l 1,22,-1
 512 384 l 1,23,-1
 384 384 l 1,20,-1
256 512 m 1,24,-1
 256 640 l 1,25,-1
 384 640 l 1,26,-1
 384 512 l 1,27,-1
 256 512 l 1,24,-1
512 512 m 1,28,-1
 512 640 l 1,29,-1
 640 640 l 1,30,-1
 640 512 l 1,31,-1
 512 512 l 1,28,-1
128 640 m 1,32,-1
 128 768 l 1,33,-1
 0 768 l 1,34,-1
 0 896 l 1,35,-1
 256 896 l 1,36,-1
 256 640 l 1,37,-1
 128 640 l 1,32,-1
640 640 m 1,38,-1
 640 896 l 1,39,-1
 896 896 l 1,40,-1
 896 768 l 1,41,-1
 768 768 l 1,42,-1
 768 640 l 1,43,-1
 640 640 l 1,38,-1
EndSplineSet
Validated: 5
EndChar

StartChar: Y
Encoding: 89 89 59
Width: 1024
Flags: W
LayerCount: 2
Fore
SplineSet
384 0 m 1,0,-1
 384 512 l 1,1,-1
 512 512 l 1,2,-1
 512 0 l 1,3,-1
 384 0 l 1,0,-1
256 512 m 1,4,-1
 256 640 l 1,5,-1
 384 640 l 1,6,-1
 384 512 l 1,7,-1
 256 512 l 1,4,-1
512 512 m 1,8,-1
 512 640 l 1,9,-1
 640 640 l 1,10,-1
 640 512 l 1,11,-1
 512 512 l 1,8,-1
128 640 m 1,12,-1
 128 768 l 1,13,-1
 256 768 l 1,14,-1
 256 640 l 1,15,-1
 128 640 l 1,12,-1
640 640 m 1,16,-1
 640 768 l 1,17,-1
 768 768 l 1,18,-1
 768 640 l 1,19,-1
 640 640 l 1,16,-1
0 768 m 1,20,-1
 0 896 l 1,21,-1
 128 896 l 1,22,-1
 128 768 l 1,23,-1
 0 768 l 1,20,-1
768 768 m 1,24,-1
 768 896 l 1,25,-1
 896 896 l 1,26,-1
 896 768 l 1,27,-1
 768 768 l 1,24,-1
EndSplineSet
Validated: 5
EndChar

StartChar: Z
Encoding: 90 90 60
Width: 1024
Flags: W
LayerCount: 2
Fore
SplineSet
0 0 m 1,0,-1
 0 128 l 1,1,-1
 128 128 l 1,2,-1
 128 256 l 1,3,-1
 256 256 l 1,4,-1
 256 128 l 1,5,-1
 896 128 l 1,6,-1
 896 0 l 1,7,-1
 0 0 l 1,0,-1
256 256 m 1,8,-1
 256 384 l 1,9,-1
 384 384 l 1,10,-1
 384 256 l 1,11,-1
 256 256 l 1,8,-1
384 384 m 1,12,-1
 384 512 l 1,13,-1
 512 512 l 1,14,-1
 512 384 l 1,15,-1
 384 384 l 1,12,-1
512 512 m 1,16,-1
 512 640 l 1,17,-1
 640 640 l 1,18,-1
 640 512 l 1,19,-1
 512 512 l 1,16,-1
640 640 m 1,20,-1
 640 768 l 1,21,-1
 0 768 l 1,22,-1
 0 896 l 1,23,-1
 896 896 l 1,24,-1
 896 768 l 1,25,-1
 768 768 l 1,26,-1
 768 640 l 1,27,-1
 640 640 l 1,20,-1
EndSplineSet
Validated: 5
EndChar

StartChar: bracketleft
Encoding: 91 91 61
Width: 512
Flags: W
LayerCount: 2
Fore
SplineSet
0 0 m 1,0,-1
 0 896 l 1,1,-1
 384 896 l 1,2,-1
 384 768 l 1,3,-1
 128 768 l 1,4,-1
 128 128 l 1,5,-1
 384 128 l 1,6,-1
 384 0 l 1,7,-1
 0 0 l 1,0,-1
EndSplineSet
Validated: 1
EndChar

StartChar: backslash
Encoding: 92 92 62
Width: 1024
Flags: W
LayerCount: 2
Fore
SplineSet
768 0 m 1,0,-1
 768 128 l 1,1,-1
 896 128 l 1,2,-1
 896 0 l 1,3,-1
 768 0 l 1,0,-1
640 128 m 1,4,-1
 640 256 l 1,5,-1
 768 256 l 1,6,-1
 768 128 l 1,7,-1
 640 128 l 1,4,-1
512 256 m 1,8,-1
 512 384 l 1,9,-1
 640 384 l 1,10,-1
 640 256 l 1,11,-1
 512 256 l 1,8,-1
384 384 m 1,12,-1
 384 512 l 1,13,-1
 512 512 l 1,14,-1
 512 384 l 1,15,-1
 384 384 l 1,12,-1
256 512 m 1,16,-1
 256 640 l 1,17,-1
 384 640 l 1,18,-1
 384 512 l 1,19,-1
 256 512 l 1,16,-1
128 640 m 1,20,-1
 128 768 l 1,21,-1
 256 768 l 1,22,-1
 256 640 l 1,23,-1
 128 640 l 1,20,-1
0 768 m 1,24,-1
 0 896 l 1,25,-1
 128 896 l 1,26,-1
 128 768 l 1,27,-1
 0 768 l 1,24,-1
EndSplineSet
Validated: 5
EndChar

StartChar: bracketright
Encoding: 93 93 63
Width: 512
Flags: W
LayerCount: 2
Fore
SplineSet
0 0 m 1,0,-1
 0 128 l 1,1,-1
 256 128 l 1,2,-1
 256 768 l 1,3,-1
 0 768 l 1,4,-1
 0 896 l 1,5,-1
 384 896 l 1,6,-1
 384 0 l 1,7,-1
 0 0 l 1,0,-1
EndSplineSet
Validated: 1
EndChar

StartChar: asciicircum
Encoding: 94 94 64
Width: 1152
Flags: W
LayerCount: 2
Fore
SplineSet
896 128 m 1,0,-1
 896 512 l 1,1,-1
 1024 512 l 1,2,-1
 1024 128 l 1,3,-1
 896 128 l 1,0,-1
512 0 m 1,4,-1
 512 384 l 1,5,-1
 0 384 l 1,6,-1
 0 1024 l 1,7,-1
 512 1024 l 1,8,-1
 512 896 l 1,9,-1
 256 896 l 1,10,-1
 256 768 l 1,11,-1
 512 768 l 1,12,-1
 512 640 l 1,13,-1
 256 640 l 1,14,-1
 256 512 l 1,15,-1
 512 512 l 1,16,-1
 512 640 l 1,17,-1
 896 640 l 1,18,-1
 896 512 l 1,19,-1
 768 512 l 1,20,-1
 768 128 l 1,21,-1
 896 128 l 1,22,-1
 896 0 l 1,23,-1
 512 0 l 1,4,-1
EndSplineSet
Validated: 5
EndChar

StartChar: underscore
Encoding: 95 95 65
Width: 768
Flags: W
LayerCount: 2
Fore
SplineSet
0 0 m 1,0,-1
 0 128 l 1,1,-1
 640 128 l 1,2,-1
 640 0 l 1,3,-1
 0 0 l 1,0,-1
EndSplineSet
Validated: 1
EndChar

StartChar: grave
Encoding: 96 96 66
Width: 384
Flags: W
LayerCount: 2
Fore
SplineSet
128 640 m 1,0,-1
 128 768 l 1,1,-1
 256 768 l 1,2,-1
 256 640 l 1,3,-1
 128 640 l 1,0,-1
0 768 m 1,4,-1
 0 896 l 1,5,-1
 128 896 l 1,6,-1
 128 768 l 1,7,-1
 0 768 l 1,4,-1
EndSplineSet
Validated: 5
EndChar

StartChar: a
Encoding: 97 97 67
Width: 896
Flags: W
LayerCount: 2
Fore
SplineSet
0 128 m 1,0,-1
 0 256 l 1,1,-1
 128 256 l 1,2,-1
 128 128 l 1,3,-1
 0 128 l 1,0,-1
128 0 m 1,4,-1
 128 128 l 1,5,-1
 512 128 l 1,6,-1
 512 256 l 1,7,-1
 128 256 l 1,8,-1
 128 384 l 1,9,-1
 512 384 l 1,10,-1
 512 512 l 1,11,-1
 640 512 l 1,12,-1
 640 128 l 1,13,-1
 768 128 l 1,14,-1
 768 0 l 1,15,-1
 128 0 l 1,4,-1
128 512 m 1,16,-1
 128 640 l 1,17,-1
 512 640 l 1,18,-1
 512 512 l 1,19,-1
 128 512 l 1,16,-1
EndSplineSet
Validated: 5
EndChar

StartChar: b
Encoding: 98 98 68
Width: 896
Flags: W
LayerCount: 2
Fore
SplineSet
640 128 m 1,0,-1
 640 384 l 1,1,-1
 768 384 l 1,2,-1
 768 128 l 1,3,-1
 640 128 l 1,0,-1
0 0 m 1,4,-1
 0 896 l 1,5,-1
 128 896 l 1,6,-1
 128 512 l 1,7,-1
 640 512 l 1,8,-1
 640 384 l 1,9,-1
 128 384 l 1,10,-1
 128 128 l 1,11,-1
 640 128 l 1,12,-1
 640 0 l 1,13,-1
 0 0 l 1,4,-1
EndSplineSet
Validated: 5
EndChar

StartChar: c
Encoding: 99 99 69
Width: 896
Flags: W
LayerCount: 2
Fore
SplineSet
128 0 m 1,0,-1
 128 128 l 1,1,-1
 640 128 l 1,2,-1
 640 0 l 1,3,-1
 128 0 l 1,0,-1
640 128 m 1,4,-1
 640 256 l 1,5,-1
 768 256 l 1,6,-1
 768 128 l 1,7,-1
 640 128 l 1,4,-1
0 128 m 1,8,-1
 0 512 l 1,9,-1
 128 512 l 1,10,-1
 128 128 l 1,11,-1
 0 128 l 1,8,-1
640 384 m 1,12,-1
 640 512 l 1,13,-1
 768 512 l 1,14,-1
 768 384 l 1,15,-1
 640 384 l 1,12,-1
128 512 m 1,16,-1
 128 640 l 1,17,-1
 640 640 l 1,18,-1
 640 512 l 1,19,-1
 128 512 l 1,16,-1
EndSplineSet
Validated: 5
EndChar

StartChar: d
Encoding: 100 100 70
Width: 896
Flags: W
LayerCount: 2
Fore
SplineSet
0 128 m 1,0,-1
 0 384 l 1,1,-1
 128 384 l 1,2,-1
 128 128 l 1,3,-1
 0 128 l 1,0,-1
128 0 m 1,4,-1
 128 128 l 1,5,-1
 640 128 l 1,6,-1
 640 384 l 1,7,-1
 128 384 l 1,8,-1
 128 512 l 1,9,-1
 640 512 l 1,10,-1
 640 896 l 1,11,-1
 768 896 l 1,12,-1
 768 0 l 1,13,-1
 128 0 l 1,4,-1
EndSplineSet
Validated: 5
EndChar

StartChar: e
Encoding: 101 101 71
Width: 896
Flags: W
LayerCount: 2
Fore
SplineSet
128 0 m 1,0,-1
 128 128 l 1,1,-1
 768 128 l 1,2,-1
 768 0 l 1,3,-1
 128 0 l 1,0,-1
0 128 m 1,4,-1
 0 512 l 1,5,-1
 128 512 l 1,6,-1
 128 384 l 1,7,-1
 640 384 l 1,8,-1
 640 512 l 1,9,-1
 768 512 l 1,10,-1
 768 256 l 1,11,-1
 128 256 l 1,12,-1
 128 128 l 1,13,-1
 0 128 l 1,4,-1
128 512 m 1,14,-1
 128 640 l 1,15,-1
 640 640 l 1,16,-1
 640 512 l 1,17,-1
 128 512 l 1,14,-1
EndSplineSet
Validated: 5
EndChar

StartChar: f
Encoding: 102 102 72
Width: 896
Flags: W
LayerCount: 2
Fore
SplineSet
256 0 m 1,0,-1
 256 384 l 1,1,-1
 0 384 l 1,2,-1
 0 512 l 1,3,-1
 256 512 l 1,4,-1
 256 768 l 1,5,-1
 384 768 l 1,6,-1
 384 512 l 1,7,-1
 768 512 l 1,8,-1
 768 384 l 1,9,-1
 384 384 l 1,10,-1
 384 0 l 1,11,-1
 256 0 l 1,0,-1
640 640 m 1,12,-1
 640 768 l 1,13,-1
 768 768 l 1,14,-1
 768 640 l 1,15,-1
 640 640 l 1,12,-1
384 768 m 1,16,-1
 384 896 l 1,17,-1
 640 896 l 1,18,-1
 640 768 l 1,19,-1
 384 768 l 1,16,-1
EndSplineSet
Validated: 5
EndChar

StartChar: g
Encoding: 103 103 73
Width: 896
Flags: W
LayerCount: 2
Fore
SplineSet
0 -128 m 1,0,-1
 0 0 l 1,1,-1
 640 0 l 1,2,-1
 640 -128 l 1,3,-1
 0 -128 l 1,0,-1
0 256 m 1,4,-1
 0 512 l 1,5,-1
 128 512 l 1,6,-1
 128 256 l 1,7,-1
 0 256 l 1,4,-1
640 0 m 1,8,-1
 640 128 l 1,9,-1
 128 128 l 1,10,-1
 128 256 l 1,11,-1
 640 256 l 1,12,-1
 640 512 l 1,13,-1
 128 512 l 1,14,-1
 128 640 l 1,15,-1
 768 640 l 1,16,-1
 768 0 l 1,17,-1
 640 0 l 1,8,-1
EndSplineSet
Validated: 5
EndChar

StartChar: h
Encoding: 104 104 74
Width: 768
Flags: W
LayerCount: 2
Fore
SplineSet
512 0 m 1,0,-1
 512 384 l 1,1,-1
 640 384 l 1,2,-1
 640 0 l 1,3,-1
 512 0 l 1,0,-1
0 0 m 1,4,-1
 0 896 l 1,5,-1
 128 896 l 1,6,-1
 128 512 l 1,7,-1
 512 512 l 1,8,-1
 512 384 l 1,9,-1
 128 384 l 1,10,-1
 128 0 l 1,11,-1
 0 0 l 1,4,-1
EndSplineSet
Validated: 5
EndChar

StartChar: i
Encoding: 105 105 75
Width: 256
Flags: W
LayerCount: 2
Fore
SplineSet
0 0 m 1,0,-1
 0 512 l 1,1,-1
 128 512 l 1,2,-1
 128 0 l 1,3,-1
 0 0 l 1,0,-1
0 640 m 1,4,-1
 0 768 l 1,5,-1
 128 768 l 1,6,-1
 128 640 l 1,7,-1
 0 640 l 1,4,-1
EndSplineSet
Validated: 1
EndChar

StartChar: j
Encoding: 106 106 76
Width: 512
Flags: W
LayerCount: 2
Fore
SplineSet
0 -128 m 1,0,-1
 0 0 l 1,1,-1
 256 0 l 1,2,-1
 256 -128 l 1,3,-1
 0 -128 l 1,0,-1
256 0 m 1,4,-1
 256 512 l 1,5,-1
 384 512 l 1,6,-1
 384 0 l 1,7,-1
 256 0 l 1,4,-1
256 640 m 1,8,-1
 256 768 l 1,9,-1
 384 768 l 1,10,-1
 384 640 l 1,11,-1
 256 640 l 1,8,-1
EndSplineSet
Validated: 5
EndChar

StartChar: k
Encoding: 107 107 77
Width: 896
Flags: W
LayerCount: 2
Fore
SplineSet
512 0 m 1,0,-1
 512 128 l 1,1,-1
 768 128 l 1,2,-1
 768 0 l 1,3,-1
 512 0 l 1,0,-1
256 128 m 1,4,-1
 256 256 l 1,5,-1
 512 256 l 1,6,-1
 512 128 l 1,7,-1
 256 128 l 1,4,-1
256 384 m 1,8,-1
 256 512 l 1,9,-1
 512 512 l 1,10,-1
 512 384 l 1,11,-1
 256 384 l 1,8,-1
512 512 m 1,12,-1
 512 640 l 1,13,-1
 768 640 l 1,14,-1
 768 512 l 1,15,-1
 512 512 l 1,12,-1
0 0 m 1,16,-1
 0 896 l 1,17,-1
 128 896 l 1,18,-1
 128 384 l 1,19,-1
 256 384 l 1,20,-1
 256 256 l 1,21,-1
 128 256 l 1,22,-1
 128 0 l 1,23,-1
 0 0 l 1,16,-1
EndSplineSet
Validated: 5
EndChar

StartChar: l
Encoding: 108 108 78
Width: 256
Flags: W
LayerCount: 2
Fore
SplineSet
0 0 m 1,0,-1
 0 896 l 1,1,-1
 128 896 l 1,2,-1
 128 0 l 1,3,-1
 0 0 l 1,0,-1
EndSplineSet
Validated: 1
EndChar

StartChar: m
Encoding: 109 109 79
Width: 1024
Flags: W
LayerCount: 2
Fore
SplineSet
384 0 m 1,0,-1
 384 512 l 1,1,-1
 512 512 l 1,2,-1
 512 0 l 1,3,-1
 384 0 l 1,0,-1
768 0 m 1,4,-1
 768 512 l 1,5,-1
 896 512 l 1,6,-1
 896 0 l 1,7,-1
 768 0 l 1,4,-1
0 0 m 1,8,-1
 0 640 l 1,9,-1
 384 640 l 1,10,-1
 384 512 l 1,11,-1
 128 512 l 1,12,-1
 128 0 l 1,13,-1
 0 0 l 1,8,-1
512 512 m 1,14,-1
 512 640 l 1,15,-1
 768 640 l 1,16,-1
 768 512 l 1,17,-1
 512 512 l 1,14,-1
EndSplineSet
Validated: 5
EndChar

StartChar: n
Encoding: 110 110 80
Width: 768
Flags: W
LayerCount: 2
Fore
SplineSet
512 0 m 1,0,-1
 512 512 l 1,1,-1
 640 512 l 1,2,-1
 640 0 l 1,3,-1
 512 0 l 1,0,-1
0 0 m 1,4,-1
 0 640 l 1,5,-1
 512 640 l 1,6,-1
 512 512 l 1,7,-1
 128 512 l 1,8,-1
 128 0 l 1,9,-1
 0 0 l 1,4,-1
EndSplineSet
Validated: 5
EndChar

StartChar: o
Encoding: 111 111 81
Width: 896
Flags: W
LayerCount: 2
Fore
SplineSet
128 0 m 1,0,-1
 128 128 l 1,1,-1
 640 128 l 1,2,-1
 640 0 l 1,3,-1
 128 0 l 1,0,-1
0 128 m 1,4,-1
 0 512 l 1,5,-1
 128 512 l 1,6,-1
 128 128 l 1,7,-1
 0 128 l 1,4,-1
640 128 m 1,8,-1
 640 512 l 1,9,-1
 768 512 l 1,10,-1
 768 128 l 1,11,-1
 640 128 l 1,8,-1
128 512 m 1,12,-1
 128 640 l 1,13,-1
 640 640 l 1,14,-1
 640 512 l 1,15,-1
 128 512 l 1,12,-1
EndSplineSet
Validated: 5
EndChar

StartChar: p
Encoding: 112 112 82
Width: 896
Flags: W
LayerCount: 2
Fore
SplineSet
640 256 m 1,0,-1
 640 512 l 1,1,-1
 768 512 l 1,2,-1
 768 256 l 1,3,-1
 640 256 l 1,0,-1
0 -128 m 1,4,-1
 0 640 l 1,5,-1
 640 640 l 1,6,-1
 640 512 l 1,7,-1
 128 512 l 1,8,-1
 128 256 l 1,9,-1
 640 256 l 1,10,-1
 640 128 l 1,11,-1
 128 128 l 1,12,-1
 128 -128 l 1,13,-1
 0 -128 l 1,4,-1
EndSplineSet
Validated: 5
EndChar

StartChar: q
Encoding: 113 113 83
Width: 896
Flags: W
LayerCount: 2
Fore
SplineSet
0 256 m 1,0,-1
 0 512 l 1,1,-1
 128 512 l 1,2,-1
 128 256 l 1,3,-1
 0 256 l 1,0,-1
640 -128 m 1,4,-1
 640 128 l 1,5,-1
 128 128 l 1,6,-1
 128 256 l 1,7,-1
 640 256 l 1,8,-1
 640 512 l 1,9,-1
 128 512 l 1,10,-1
 128 640 l 1,11,-1
 768 640 l 1,12,-1
 768 -128 l 1,13,-1
 640 -128 l 1,4,-1
EndSplineSet
Validated: 5
EndChar

StartChar: r
Encoding: 114 114 84
Width: 896
Flags: W
LayerCount: 2
Fore
SplineSet
256 384 m 1,0,-1
 256 512 l 1,1,-1
 384 512 l 1,2,-1
 384 384 l 1,3,-1
 256 384 l 1,0,-1
0 0 m 1,4,-1
 0 640 l 1,5,-1
 128 640 l 1,6,-1
 128 384 l 1,7,-1
 256 384 l 1,8,-1
 256 256 l 1,9,-1
 128 256 l 1,10,-1
 128 0 l 1,11,-1
 0 0 l 1,4,-1
384 512 m 1,12,-1
 384 640 l 1,13,-1
 768 640 l 1,14,-1
 768 512 l 1,15,-1
 384 512 l 1,12,-1
EndSplineSet
Validated: 5
EndChar

StartChar: s
Encoding: 115 115 85
Width: 896
Flags: W
LayerCount: 2
Fore
SplineSet
0 0 m 1,0,-1
 0 128 l 1,1,-1
 640 128 l 1,2,-1
 640 0 l 1,3,-1
 0 0 l 1,0,-1
640 128 m 1,4,-1
 640 256 l 1,5,-1
 768 256 l 1,6,-1
 768 128 l 1,7,-1
 640 128 l 1,4,-1
128 256 m 1,8,-1
 128 384 l 1,9,-1
 640 384 l 1,10,-1
 640 256 l 1,11,-1
 128 256 l 1,8,-1
0 384 m 1,12,-1
 0 512 l 1,13,-1
 128 512 l 1,14,-1
 128 384 l 1,15,-1
 0 384 l 1,12,-1
128 512 m 1,16,-1
 128 640 l 1,17,-1
 640 640 l 1,18,-1
 640 512 l 1,19,-1
 128 512 l 1,16,-1
EndSplineSet
Validated: 5
EndChar

StartChar: t
Encoding: 116 116 86
Width: 768
Flags: W
LayerCount: 2
Fore
SplineSet
384 0 m 1,0,-1
 384 128 l 1,1,-1
 640 128 l 1,2,-1
 640 0 l 1,3,-1
 384 0 l 1,0,-1
256 128 m 1,4,-1
 256 512 l 1,5,-1
 0 512 l 1,6,-1
 0 640 l 1,7,-1
 256 640 l 1,8,-1
 256 768 l 1,9,-1
 384 768 l 1,10,-1
 384 640 l 1,11,-1
 640 640 l 1,12,-1
 640 512 l 1,13,-1
 384 512 l 1,14,-1
 384 128 l 1,15,-1
 256 128 l 1,4,-1
EndSplineSet
Validated: 5
EndChar

StartChar: u
Encoding: 117 117 87
Width: 768
Flags: W
LayerCount: 2
Fore
SplineSet
0 128 m 1,0,-1
 0 640 l 1,1,-1
 128 640 l 1,2,-1
 128 128 l 1,3,-1
 0 128 l 1,0,-1
128 0 m 1,4,-1
 128 128 l 1,5,-1
 512 128 l 1,6,-1
 512 640 l 1,7,-1
 640 640 l 1,8,-1
 640 0 l 1,9,-1
 128 0 l 1,4,-1
EndSplineSet
Validated: 5
EndChar

StartChar: v
Encoding: 118 118 88
Width: 768
Flags: W
LayerCount: 2
Fore
SplineSet
256 0 m 1,0,-1
 256 128 l 1,1,-1
 384 128 l 1,2,-1
 384 0 l 1,3,-1
 256 0 l 1,0,-1
128 128 m 1,4,-1
 128 256 l 1,5,-1
 256 256 l 1,6,-1
 256 128 l 1,7,-1
 128 128 l 1,4,-1
384 128 m 1,8,-1
 384 256 l 1,9,-1
 512 256 l 1,10,-1
 512 128 l 1,11,-1
 384 128 l 1,8,-1
0 256 m 1,12,-1
 0 640 l 1,13,-1
 128 640 l 1,14,-1
 128 256 l 1,15,-1
 0 256 l 1,12,-1
512 256 m 1,16,-1
 512 640 l 1,17,-1
 640 640 l 1,18,-1
 640 256 l 1,19,-1
 512 256 l 1,16,-1
EndSplineSet
Validated: 5
EndChar

StartChar: w
Encoding: 119 119 89
Width: 1024
Flags: W
LayerCount: 2
Fore
SplineSet
128 0 m 1,0,-1
 128 128 l 1,1,-1
 256 128 l 1,2,-1
 256 0 l 1,3,-1
 128 0 l 1,0,-1
640 0 m 1,4,-1
 640 128 l 1,5,-1
 768 128 l 1,6,-1
 768 0 l 1,7,-1
 640 0 l 1,4,-1
256 128 m 1,8,-1
 256 256 l 1,9,-1
 384 256 l 1,10,-1
 384 128 l 1,11,-1
 256 128 l 1,8,-1
512 128 m 1,12,-1
 512 256 l 1,13,-1
 640 256 l 1,14,-1
 640 128 l 1,15,-1
 512 128 l 1,12,-1
384 256 m 1,16,-1
 384 512 l 1,17,-1
 512 512 l 1,18,-1
 512 256 l 1,19,-1
 384 256 l 1,16,-1
0 128 m 1,20,-1
 0 640 l 1,21,-1
 128 640 l 1,22,-1
 128 128 l 1,23,-1
 0 128 l 1,20,-1
768 128 m 1,24,-1
 768 640 l 1,25,-1
 896 640 l 1,26,-1
 896 128 l 1,27,-1
 768 128 l 1,24,-1
EndSplineSet
Validated: 5
EndChar

StartChar: x
Encoding: 120 120 90
Width: 1024
Flags: W
LayerCount: 2
Fore
SplineSet
128 0 m 1,0,-1
 128 128 l 1,1,-1
 256 128 l 1,2,-1
 256 0 l 1,3,-1
 128 0 l 1,0,-1
640 0 m 1,4,-1
 640 128 l 1,5,-1
 896 128 l 1,6,-1
 896 0 l 1,7,-1
 640 0 l 1,4,-1
256 128 m 1,8,-1
 256 256 l 1,9,-1
 384 256 l 1,10,-1
 384 128 l 1,11,-1
 256 128 l 1,8,-1
512 128 m 1,12,-1
 512 256 l 1,13,-1
 640 256 l 1,14,-1
 640 128 l 1,15,-1
 512 128 l 1,12,-1
384 256 m 1,16,-1
 384 384 l 1,17,-1
 512 384 l 1,18,-1
 512 256 l 1,19,-1
 384 256 l 1,16,-1
256 384 m 1,20,-1
 256 512 l 1,21,-1
 384 512 l 1,22,-1
 384 384 l 1,23,-1
 256 384 l 1,20,-1
512 384 m 1,24,-1
 512 512 l 1,25,-1
 640 512 l 1,26,-1
 640 384 l 1,27,-1
 512 384 l 1,24,-1
0 512 m 1,28,-1
 0 640 l 1,29,-1
 256 640 l 1,30,-1
 256 512 l 1,31,-1
 0 512 l 1,28,-1
640 512 m 1,32,-1
 640 640 l 1,33,-1
 768 640 l 1,34,-1
 768 512 l 1,35,-1
 640 512 l 1,32,-1
EndSplineSet
Validated: 5
EndChar

StartChar: y
Encoding: 121 121 91
Width: 768
Flags: W
LayerCount: 2
Fore
SplineSet
0 -128 m 1,0,-1
 0 0 l 1,1,-1
 512 0 l 1,2,-1
 512 -128 l 1,3,-1
 0 -128 l 1,0,-1
0 256 m 1,4,-1
 0 640 l 1,5,-1
 128 640 l 1,6,-1
 128 256 l 1,7,-1
 0 256 l 1,4,-1
512 0 m 1,8,-1
 512 128 l 1,9,-1
 128 128 l 1,10,-1
 128 256 l 1,11,-1
 512 256 l 1,12,-1
 512 640 l 1,13,-1
 640 640 l 1,14,-1
 640 0 l 1,15,-1
 512 0 l 1,8,-1
EndSplineSet
Validated: 5
EndChar

StartChar: z
Encoding: 122 122 92
Width: 896
Flags: W
LayerCount: 2
Fore
SplineSet
0 0 m 1,0,-1
 0 128 l 1,1,-1
 128 128 l 1,2,-1
 128 256 l 1,3,-1
 256 256 l 1,4,-1
 256 128 l 1,5,-1
 768 128 l 1,6,-1
 768 0 l 1,7,-1
 0 0 l 1,0,-1
256 256 m 1,8,-1
 256 384 l 1,9,-1
 512 384 l 1,10,-1
 512 256 l 1,11,-1
 256 256 l 1,8,-1
512 384 m 1,12,-1
 512 512 l 1,13,-1
 0 512 l 1,14,-1
 0 640 l 1,15,-1
 768 640 l 1,16,-1
 768 512 l 1,17,-1
 640 512 l 1,18,-1
 640 384 l 1,19,-1
 512 384 l 1,12,-1
EndSplineSet
Validated: 5
EndChar

StartChar: braceleft
Encoding: 123 123 93
Width: 512
Flags: W
LayerCount: 2
Fore
SplineSet
256 0 m 1,0,-1
 256 128 l 1,1,-1
 384 128 l 1,2,-1
 384 0 l 1,3,-1
 256 0 l 1,0,-1
128 128 m 1,4,-1
 128 384 l 1,5,-1
 0 384 l 1,6,-1
 0 512 l 1,7,-1
 128 512 l 1,8,-1
 128 768 l 1,9,-1
 256 768 l 1,10,-1
 256 128 l 1,11,-1
 128 128 l 1,4,-1
256 768 m 1,12,-1
 256 896 l 1,13,-1
 384 896 l 1,14,-1
 384 768 l 1,15,-1
 256 768 l 1,12,-1
EndSplineSet
Validated: 5
EndChar

StartChar: bar
Encoding: 124 124 94
Width: 512
Flags: W
LayerCount: 2
Fore
SplineSet
256 0 m 1,0,-1
 256 896 l 1,1,-1
 384 896 l 1,2,-1
 384 0 l 1,3,-1
 256 0 l 1,0,-1
EndSplineSet
Validated: 1
EndChar

StartChar: braceright
Encoding: 125 125 95
Width: 512
Flags: W
LayerCount: 2
Fore
SplineSet
0 0 m 1,0,-1
 0 128 l 1,1,-1
 128 128 l 1,2,-1
 128 0 l 1,3,-1
 0 0 l 1,0,-1
128 128 m 1,4,-1
 128 768 l 1,5,-1
 256 768 l 1,6,-1
 256 512 l 1,7,-1
 384 512 l 1,8,-1
 384 384 l 1,9,-1
 256 384 l 1,10,-1
 256 128 l 1,11,-1
 128 128 l 1,4,-1
0 768 m 1,12,-1
 0 896 l 1,13,-1
 128 896 l 1,14,-1
 128 768 l 1,15,-1
 0 768 l 1,12,-1
EndSplineSet
Validated: 5
EndChar

StartChar: asciitilde
Encoding: 126 126 96
Width: 768
Flags: W
LayerCount: 2
Fore
SplineSet
384 128 m 1,0,-1
 384 256 l 1,1,-1
 512 256 l 1,2,-1
 512 128 l 1,3,-1
 384 128 l 1,0,-1
0 128 m 1,4,-1
 0 384 l 1,5,-1
 128 384 l 1,6,-1
 128 128 l 1,7,-1
 0 128 l 1,4,-1
256 256 m 1,8,-1
 256 384 l 1,9,-1
 384 384 l 1,10,-1
 384 256 l 1,11,-1
 256 256 l 1,8,-1
128 384 m 1,12,-1
 128 512 l 1,13,-1
 256 512 l 1,14,-1
 256 384 l 1,15,-1
 128 384 l 1,12,-1
512 256 m 1,16,-1
 512 512 l 1,17,-1
 640 512 l 1,18,-1
 640 256 l 1,19,-1
 512 256 l 1,16,-1
EndSplineSet
Validated: 5
EndChar

StartChar: quoteleft
Encoding: 8216 8216 97
Width: 640
Flags: W
LayerCount: 2
Fore
SplineSet
384 512 m 1,0,-1
 384 640 l 1,1,-1
 512 640 l 1,2,-1
 512 512 l 1,3,-1
 384 512 l 1,0,-1
128 640 m 1,4,-1
 128 768 l 1,5,-1
 0 768 l 1,6,-1
 0 896 l 1,7,-1
 256 896 l 1,8,-1
 256 768 l 1,9,-1
 384 768 l 1,10,-1
 384 640 l 1,11,-1
 128 640 l 1,4,-1
EndSplineSet
Validated: 5
EndChar

StartChar: quoteright
Encoding: 8217 8217 98
Width: 640
Flags: W
LayerCount: 2
Fore
SplineSet
0 512 m 1,0,-1
 0 640 l 1,1,-1
 128 640 l 1,2,-1
 128 512 l 1,3,-1
 0 512 l 1,0,-1
128 640 m 1,4,-1
 128 768 l 1,5,-1
 256 768 l 1,6,-1
 256 896 l 1,7,-1
 512 896 l 1,8,-1
 512 768 l 1,9,-1
 384 768 l 1,10,-1
 384 640 l 1,11,-1
 128 640 l 1,4,-1
EndSplineSet
Validated: 5
EndChar

StartChar: quotedblleft
Encoding: 8220 8220 99
Width: 1024
Flags: W
LayerCount: 2
Fore
SplineSet
384 384 m 1,0,-1
 384 512 l 1,1,-1
 512 512 l 1,2,-1
 512 384 l 1,3,-1
 384 384 l 1,0,-1
768 512 m 1,4,-1
 768 640 l 1,5,-1
 896 640 l 1,6,-1
 896 512 l 1,7,-1
 768 512 l 1,4,-1
128 512 m 1,8,-1
 128 640 l 1,9,-1
 0 640 l 1,10,-1
 0 768 l 1,11,-1
 256 768 l 1,12,-1
 256 640 l 1,13,-1
 384 640 l 1,14,-1
 384 512 l 1,15,-1
 128 512 l 1,8,-1
512 640 m 1,16,-1
 512 768 l 1,17,-1
 384 768 l 1,18,-1
 384 896 l 1,19,-1
 640 896 l 1,20,-1
 640 768 l 1,21,-1
 768 768 l 1,22,-1
 768 640 l 1,23,-1
 512 640 l 1,16,-1
EndSplineSet
Validated: 5
EndChar

StartChar: quotedblright
Encoding: 8221 8221 100
Width: 1024
Flags: W
LayerCount: 2
Fore
SplineSet
384 384 m 1,0,-1
 384 512 l 1,1,-1
 512 512 l 1,2,-1
 512 384 l 1,3,-1
 384 384 l 1,0,-1
0 512 m 1,4,-1
 0 640 l 1,5,-1
 128 640 l 1,6,-1
 128 512 l 1,7,-1
 0 512 l 1,4,-1
512 512 m 1,8,-1
 512 640 l 1,9,-1
 640 640 l 1,10,-1
 640 768 l 1,11,-1
 896 768 l 1,12,-1
 896 640 l 1,13,-1
 768 640 l 1,14,-1
 768 512 l 1,15,-1
 512 512 l 1,8,-1
128 640 m 1,16,-1
 128 768 l 1,17,-1
 256 768 l 1,18,-1
 256 896 l 1,19,-1
 512 896 l 1,20,-1
 512 768 l 1,21,-1
 384 768 l 1,22,-1
 384 640 l 1,23,-1
 128 640 l 1,16,-1
EndSplineSet
Validated: 5
EndChar

StartChar: ccedilla
Encoding: 231 231 101
Width: 1024
VWidth: 0
LayerCount: 2
Fore
SplineSet
128 894 m 25,0,-1
 128 0 l 25,1,-1
 384 0 l 25,2,-1
 384 124 l 25,3,-1
 510 124 l 25,4,-1
 510 252 l 25,5,-1
 640 252 l 25,6,-1
 640 380 l 25,7,-1
 768 380 l 25,8,-1
 768 508 l 25,9,-1
 642 508 l 25,10,-1
 642 640 l 25,11,-1
 514 640 l 25,12,-1
 514 762 l 25,13,-1
 386 762 l 25,14,-1
 386 892 l 25,15,-1
 128 894 l 25,0,-1
EndSplineSet
Validated: 9
EndChar

StartChar: acircumflex
Encoding: 226 226 102
Width: 1024
VWidth: 0
Flags: W
LayerCount: 2
Fore
SplineSet
642 508 m 5,0,-1
 642 377 l 1,1,-1
 510 377 l 1,2,-1
 510 508 l 1,3,-1
 642 508 l 5,0,-1
514 640 m 1,4,-1
 514 253 l 1,5,-1
 384 253 l 1,6,-1
 384 640 l 1,7,-1
 514 640 l 1,4,-1
386 762 m 1,8,-1
 386 121 l 1,9,-1
 254 121 l 1,10,-1
 254 762 l 1,11,-1
 386 762 l 1,8,-1
128 894 m 1,12,-1
 128 0 l 1,13,-1
 384 0 l 1,14,-1
 384 124 l 1,15,-1
 510 124 l 1,16,-1
 510 252 l 1,17,-1
 640 252 l 1,18,-1
 640 380 l 1,19,-1
 768 380 l 1,20,-1
 768 508 l 1,21,-1
 642 508 l 1,22,-1
 642 640 l 1,23,-1
 514 640 l 1,24,-1
 514 762 l 1,25,-1
 386 762 l 1,26,-1
 386 892 l 1,27,-1
 128 894 l 1,12,-1
EndSplineSet
Validated: 5
EndChar
